<?xml version="1.0" encoding="utf-8"?>
<svg version="1.2" baseProfile="tiny"
	 xmlns="http://www.w3.org/2000/svg" xmlns:xlink="http://www.w3.org/1999/xlink" xmlns:a="http://ns.adobe.com/AdobeSVGViewerExtensions/3.0/"
	 x="0px" y="0px" width="33px" height="22px" viewBox="0 0 33 22" overflow="visible" xml:space="preserve">
<defs>
</defs>
	<rect height="4" width="4" y="17.5" x="0.5" stroke-width="1" fill="#000000" stroke="#000000"/>
	<rect height="8" width="4" y="13.5" x="7.5" stroke-width="1" fill="#000000" stroke="#000000"/>
	<rect height="11" width="4" y="10.5" x="14.5" stroke-width="1" fill="#000000" stroke="#000000"/>
	<rect height="16" width="4" y="5.5" x="21.5" stroke-width="1" fill="#000000" stroke="#000000"/>
	<rect height="20" width="4" y="1.5" x="28.5" stroke-width="1" fill="#000000" stroke="#000000"/>
	
	<rect height="9" width="24" y="0" x="0" fill="#000000"/>
	<path fill="#FFFFFF" d="M0,9 h24 v-9 h1 v10 h-24 z"/>
	
	<path fill="#FFFFFF" d="M3,1.5 L4.5,7.5 h1 L6.75,3.5 L8,7.5 h1 L10.5,1.5 h-1.25 L8.375,5.5 L7.5,1.5 h-1.25 L5.125,5.5 L4.25,1.5 z"/>
	<rect width="1.25" height="4.75" x="11.25" y="2.75" fill="#ffffff" /> <rect width="1.25" height="1" x="11.25" y="1.25" fill="#ffffff" />
	<path fill="#FFFFFF" d="M13.75,7.5 h1.25 v-2.5 h2.5 v-1 h-2.5 v-1.5 h2.75 v-1 h-4 z"/>
	<rect width="1.25" height="4.75" x="18.5" y="2.75" fill="#ffffff" /> <rect width="1.25" height="1" x="18.5" y="1.25" fill="#ffffff" />
</svg>