<?xml version="1.0" encoding="utf-8"?>
<svg version="1.2" baseProfile="tiny"
	 xmlns="http://www.w3.org/2000/svg" xmlns:xlink="http://www.w3.org/1999/xlink" xmlns:a="http://ns.adobe.com/AdobeSVGViewerExtensions/3.0/"
	 x="0px" y="0px" width="33px" height="22px" viewBox="0 0 33 22" overflow="visible" xml:space="preserve">
<defs>
</defs>
	<rect height="4" width="4" y="17.5" x="28.5" stroke-width="1" fill="#000000" stroke="#000000"/>
	<rect height="8" width="4" y="13.5" x="21.5" stroke-width="1" fill="#000000" stroke="#000000"/>
	<rect height="11" width="4" y="10.5" x="14.5" stroke-width="1" fill="#000000" stroke="#000000"/>
	<rect height="16" width="4" y="5.5" x="7.5" stroke-width="1" fill="#000000" stroke="#000000"/>
	<rect height="20" width="4" y="1.5" x="0.5" stroke-width="1" fill="#000000" stroke="#000000"/>
	
	<rect height="9" width="24" y="0" x="9" fill="#000000"/>
	<path fill="#FFFFFF" d="M33,9 h-24 v-9 h-1 v10 h24 z"/>
	
	<path fill="#FFFFFF" d="M12,1.5 L13.5,7.5 h1 L15.75,3.5 L17,7.5 h1 L19.5,1.5 h-1.25 L17.375,5.5 L16.5,1.5 h-1.25 L14.125,5.5 L13.25,1.5 z"/>
	<rect width="1.25" height="4.75" x="20.25" y="2.75" fill="#ffffff" /> <rect width="1.25" height="1" x="20.25" y="1.25" fill="#ffffff" />
	<path fill="#FFFFFF" d="M22.75,7.5 h1.25 v-2.5 h2.5 v-1 h-2.5 v-1.5 h2.75 v-1 h-4 z"/>
	<rect width="1.25" height="4.75" x="27.5" y="2.75" fill="#ffffff" /> <rect width="1.25" height="1" x="27.5" y="1.25" fill="#ffffff" />
</svg>