<?xml version="1.0" encoding="utf-8"?>
<!-- Generator: Adobe Illustrator 16.0.0, SVG Export Plug-In . SVG Version: 6.00 Build 0)  -->
<!DOCTYPE svg PUBLIC "-//W3C//DTD SVG 1.1//EN" "http://www.w3.org/Graphics/SVG/1.1/DTD/svg11.dtd">
<svg version="1.1" id="Layer_1" xmlns="http://www.w3.org/2000/svg" xmlns:xlink="http://www.w3.org/1999/xlink" x="0px" y="0px"
	 width="73px" height="73px" viewBox="0 0 73 73" enable-background="new 0 0 73 73" xml:space="preserve">
<g>
	<polygon fill="#19AAE2" points="4.343,18.25 36.021,0 67.693,18.25 67.693,54.75 36.021,73 4.343,54.75 	"/>
	<polygon fill="#0790C8" points="4.343,18.25 36.021,0 67.693,18.25 67.693,54.75 	"/>
	<polygon fill="#4CBDE9" points="11.614,22.438 36.021,8.376 60.424,22.438 60.424,50.561 36.021,64.623 11.614,50.561 	"/>
	<g>
		<path fill="#FFFFFF" d="M45.624,30.294v3.041l9.068-5.235l-9.068-5.234v3.175c-2.075,0.263-4.396,1.618-5.986,3.171
			c-2.635,2.622-5.083,6.254-7.357,9.099c-2.238,2.925-4.631,4.577-5.797,4.577h-6.821v3.635h6.821c2.622,0,4.654-1.29,6.409-3.001
			c2.632-2.622,5.226-6.083,7.496-8.931C42.242,32.174,44.067,30.7,45.624,30.294z"/>
		<path fill="#FFFFFF" d="M32.747,35.491c0.233-0.314,0.468-0.625,0.704-0.945c0.627-0.844,1.262-1.81,1.911-2.647
			c-2.438-2.957-4.958-6.145-8.875-6.145h-6.823v4.155h6.823c0.788,0,2.02,0.721,3.454,2.159
			C30.847,32.957,31.786,34.241,32.747,35.491z"/>
		<path fill="#FFFFFF" d="M45.624,46.895v3.24l9.068-5.234l-9.068-5.231v3.002c-1.557-0.234-1.974-0.844-3.035-1.906
			c-0.907-0.89-1.989-2.036-2.953-3.288c-0.228,0.308-0.527,0.613-0.759,0.923c-0.596,0.808-1.242,1.619-1.862,2.421l0.204,0.171
			C39.49,43.753,41.472,46.448,45.624,46.895z"/>
	</g>
</g>
</svg>
